<?xml version="1.0" encoding="UTF-8"?><svg id="Layer_1" xmlns="http://www.w3.org/2000/svg" viewBox="0 0 52.1 52.02"><path d="M52.1,0c0,4.16,0,8.33,0,12.49,0,.15,0,.3,0,.51-.19,0-.35,0-.51,0-4.86,0-9.71,0-14.57,0-2.22,0-3.97,1.43-4.38,3.56-.07,.37-.07,.76-.07,1.14,0,11.26,0,22.51,0,33.77v.54h-13.03c0-.14,0-.27,0-.4,0-11.37,0-22.74,0-34.11,0-2.62,1.89-4.49,4.52-4.5,1.35,0,2.7,0,4.05,0,2.55,0,4.42-1.84,4.45-4.39,.02-1.34,0-2.67,0-4.01,0-2.42,1.3-4.02,3.68-4.55,.04,0,.07-.03,.1-.05,5.25,0,10.51,0,15.76,0Z"/><path d="M19.51,0c0,.09,.02,.18,.02,.27,0,4.14,0,8.27,0,12.41v.3c-.12,0-.23,.03-.34,.03-6.33,0-12.66,0-18.99,0-.06,0-.13,0-.19-.01V0C6.5,0,13,0,19.51,0Z"/></svg>